<svg width="111" height="26" viewBox="0 0 111 26" fill="none" xmlns="http://www.w3.org/2000/svg">
<g clip-path="url(#clip0_3_1834)">
<path d="M40.4214 5.38728V7.14919H36.7985V17.3616H34.6525V7.14919H31.0627V5.38728H40.4214Z" fill="black"/>
<path d="M42.4327 10.6204C42.7184 9.14994 43.8412 8.51624 44.7465 8.51624C45.0322 8.51624 45.2 8.567 45.4508 8.6366V10.7069C45.1318 10.5865 44.7465 10.5357 44.4773 10.5357C43.7232 10.5357 42.464 10.9626 42.464 13.3582V17.3616H40.4009V8.70615H42.4308V10.6222L42.4327 10.6204Z" fill="black"/>
<path d="M55.1671 8.70616V17.3616H53.1041V16.0622C52.5012 17.0024 51.4429 17.5496 50.2021 17.5496C47.6855 17.5496 46.0427 15.5319 46.0427 12.9991C46.0427 10.4662 47.6191 8.51814 50.2187 8.51814C51.3599 8.51814 52.4164 8.99763 53.1041 9.98861V8.70616H55.1671ZM50.6225 15.7877C52.031 15.7877 53.1558 14.8118 53.1558 13.1025C53.1558 11.3932 52.0992 10.28 50.5727 10.28C49.0461 10.28 48.1243 11.5286 48.1243 13.016C48.1243 14.5034 49.0812 15.7877 50.6225 15.7877Z" fill="black"/>
<path d="M56.3418 8.70616H58.4046V10.1597C58.941 9.03148 59.948 8.51814 61.1557 8.51814C63.2684 8.51814 64.2918 10.0751 64.2918 12.5722V17.3616H62.2285V12.5891C62.2285 11.0848 61.6071 10.297 60.5858 10.297C59.3781 10.297 58.4046 11.2202 58.4046 13.0329V17.3597H56.3418V8.70426V8.70616Z" fill="black"/>
<path d="M66.9059 14.6068C67.1236 15.4624 67.9458 15.8553 68.7164 15.8553C69.3192 15.8553 69.9905 15.6335 69.9905 14.949C69.9905 14.5033 69.5885 14.2476 69.0685 14.0258L67.8279 13.5463C66.1337 12.8956 65.6982 11.9216 65.6982 11.1337C65.6982 9.52602 67.0408 8.51624 68.8014 8.51624C69.8742 8.51624 71.2163 8.89232 71.7697 10.4493L70.1084 11.0641C69.8912 10.3628 69.2698 10.1747 68.8179 10.1747C68.2815 10.1747 67.7116 10.4831 67.7116 11.0811C67.7116 11.5606 68.1301 11.7994 68.6001 11.9705L69.8578 12.4331C71.6683 13.0479 72.0204 14.1611 72.0204 14.9133C72.0204 16.6244 70.4606 17.5477 68.7 17.5477C67.3244 17.5477 65.7646 16.9667 65.2781 15.3063L66.9043 14.6049L66.9059 14.6068Z" fill="black"/>
<path d="M72.9568 21.2784V8.70616H75.0201V10.0055C75.6229 9.06533 76.6814 8.51814 77.922 8.51814C80.4389 8.51814 82.0816 10.5358 82.0816 13.0686C82.0816 15.6015 80.5053 17.5496 77.9056 17.5496C76.7642 17.5496 75.7079 17.0701 75.0201 16.0791V21.2784H72.9568ZM77.5019 10.28C76.0929 10.28 74.9686 11.2559 74.9686 12.9652C74.9686 14.6745 76.025 15.7877 77.5513 15.7877C79.0783 15.7877 79.9997 14.5391 79.9997 13.0517C79.9997 11.5644 79.0432 10.28 77.5019 10.28Z" fill="black"/>
<path d="M87.7161 8.51814C90.1974 8.51814 92.3287 10.5527 92.3287 13.0329C92.3287 15.5131 90.1996 17.5477 87.7161 17.5477C85.2327 17.5477 83.1216 15.547 83.1216 13.0329C83.1216 10.5188 85.2678 8.51814 87.7161 8.51814ZM87.7161 15.7538C89.1575 15.7538 90.2495 14.556 90.2495 13.0348C90.2495 11.5136 89.1597 10.3158 87.7161 10.3158C86.2726 10.3158 85.2014 11.5136 85.2014 13.0348C85.2014 14.556 86.2907 15.7538 87.7161 15.7538Z" fill="black"/>
<path d="M98.1145 8.51814C98.9366 8.51814 100.076 8.70616 101.385 9.68208L100.428 11.1864C99.5559 10.4511 98.533 10.4004 98.2138 10.4004C96.5711 10.4004 95.4133 11.4779 95.4133 13.0348C95.4133 14.5917 96.5711 15.6692 98.2138 15.6692C98.533 15.6692 99.5559 15.6015 100.428 14.8832L101.385 16.3706C100.076 17.3635 98.9366 17.5515 98.1145 17.5515C95.1626 17.5515 93.3335 15.6015 93.3335 13.0874C93.3335 10.5734 95.1111 8.51998 98.1145 8.51998V8.51814Z" fill="black"/>
<path d="M106.009 8.51814C108.491 8.51814 110.622 10.5527 110.622 13.0329C110.622 15.5131 108.493 17.5477 106.009 17.5477C103.525 17.5477 101.415 15.547 101.415 13.0329C101.415 10.5188 103.56 8.51814 106.009 8.51814ZM106.009 15.7538C107.451 15.7538 108.542 14.556 108.542 13.0348C108.542 11.5136 107.453 10.3158 106.009 10.3158C104.565 10.3158 103.494 11.5136 103.494 13.0348C103.494 14.556 104.584 15.7538 106.009 15.7538Z" fill="black"/>
<path d="M12.7639 0C9.03779 0 5.68596 1.62841 3.35184 4.22521C3.69477 4.50915 4.04323 4.78744 4.39538 5.05822C4.39538 5.05822 4.39538 5.05822 4.39722 5.0601C4.64612 5.2519 4.89871 5.43996 5.15313 5.62423C5.23795 5.68625 5.32274 5.74643 5.40756 5.80661C5.41494 5.81225 5.42232 5.81604 5.42971 5.82167C5.50895 5.87806 5.58824 5.9345 5.66939 5.98899C5.67858 5.99462 5.68596 6.00031 5.6952 6.00779C5.77444 6.06423 5.85559 6.11877 5.93489 6.17327C5.94222 6.1789 5.9496 6.18269 5.95698 6.18832C6.0418 6.24661 6.12662 6.30305 6.21324 6.36133C6.21324 6.36133 6.2151 6.36133 6.21696 6.36317C9.23695 8.3752 12.4689 9.7949 15.4244 10.1935C15.6475 10.2236 15.8687 10.2481 16.09 10.2669H16.0918C16.1987 10.2763 16.3057 10.2838 16.4126 10.2894C16.4163 10.2894 16.42 10.2894 16.4218 10.2894C16.632 10.3007 16.8403 10.3063 17.0468 10.3063C17.0597 10.3063 17.0726 10.3063 17.0856 10.3063C17.2865 10.3063 17.4838 10.2988 17.6811 10.2875C17.6995 10.2875 17.7161 10.2857 17.7346 10.2838C17.823 10.2781 17.9115 10.2706 17.9982 10.2631C18.0074 10.2631 18.0166 10.2631 18.024 10.2612C18.1199 10.2518 18.2139 10.2424 18.3079 10.2293C18.3264 10.2274 18.3448 10.2236 18.3651 10.2217C18.4425 10.2123 18.52 10.201 18.5955 10.1879C18.6158 10.1841 18.6361 10.1822 18.6564 10.1785C18.7467 10.1635 18.8371 10.1465 18.9256 10.1296C18.9403 10.1259 18.9551 10.124 18.9698 10.1202C19.0454 10.1052 19.121 10.0882 19.1948 10.0713C19.2187 10.0657 19.2427 10.06 19.2666 10.0544C19.3552 10.0337 19.4436 10.0149 19.5285 9.98671C23.026 8.83588 21.5547 7.74529 19.2408 7.86939C16.9934 7.98975 15.7544 8.83778 14.8805 9.59367C14.1486 9.41882 13.3871 9.17811 12.6146 8.87727C13.3318 8.41094 14.0416 8.07246 14.7108 7.86939C16.7851 7.23948 18.4444 7.13602 19.8308 7.31656C23.3799 7.79041 23.1384 9.65196 20.2733 10.9175C20.1387 10.9776 19.9986 11.0209 19.8621 11.0698C19.8382 11.0792 19.8142 11.0867 19.7902 11.0961C19.6539 11.145 19.5174 11.1901 19.3828 11.2352C19.3514 11.2447 19.3201 11.2559 19.2906 11.2654C19.1726 11.303 19.0528 11.3405 18.9348 11.3763C18.9108 11.3838 18.8887 11.3914 18.8647 11.397C18.7264 11.4383 18.5881 11.4778 18.4499 11.5155C18.4241 11.523 18.4001 11.5286 18.3743 11.5361C18.2508 11.5699 18.1254 11.6001 18.0019 11.632C17.9816 11.6377 17.9613 11.6414 17.9429 11.6471C17.8009 11.6809 17.6589 11.7129 17.517 11.7448C17.5004 11.7486 17.4838 11.7524 17.4672 11.7542C17.3344 11.7824 17.1998 11.8088 17.0671 11.8351C17.0524 11.837 17.0395 11.8407 17.0247 11.8426C16.8772 11.8708 16.7297 11.8953 16.5822 11.9197C16.5767 11.9197 16.573 11.9197 16.5693 11.9216C16.4236 11.9442 16.278 11.9667 16.1324 11.9855C16.125 11.9855 16.1176 11.9874 16.1121 11.9893C15.0446 12.1322 13.9863 12.1811 12.9483 12.1491C11.7849 12.1134 10.6455 11.9799 9.54297 11.7674C6.19667 11.1262 3.18223 9.77611 0.846255 8.34887C0.300523 9.79864 0 11.3725 0 13.0179C0 17.4537 2.17556 21.3705 5.4979 23.721C5.81502 18.9316 7.15907 15.2969 8.8774 12.702C10.1293 12.8693 11.3867 12.9539 12.622 12.9558C11.571 15.8892 11.5747 20.2291 13.7319 25.9944V25.9981C20.3305 25.4923 25.5279 19.8737 25.5279 13.0179C25.5279 6.162 19.8142 0 12.7639 0Z" fill="black"/>
</g>
<defs>
<clipPath id="clip0_3_1834">
<rect width="111" height="26" fill="white"/>
</clipPath>
</defs>
</svg>
